<svg xmlns="http://www.w3.org/2000/svg" data-name="21 Design A Program" viewBox="0 0 64 80" x="0px" y="0px"><path d="M7,9h-2c-.552,0-1,.447-1,1s.448,1,1,1h2c.552,0,1-.447,1-1s-.448-1-1-1Z"/><path d="M7,13h-2c-.552,0-1,.447-1,1s.448,1,1,1h2c.552,0,1-.447,1-1s-.448-1-1-1Z"/><path d="M7,17h-2c-.552,0-1,.447-1,1s.448,1,1,1h2c.552,0,1-.447,1-1s-.448-1-1-1Z"/><path d="M7,21h-2c-.552,0-1,.447-1,1s.448,1,1,1h2c.552,0,1-.447,1-1s-.448-1-1-1Z"/><path d="M11,11h14c.552,0,1-.447,1-1s-.448-1-1-1H11c-.552,0-1,.447-1,1s.448,1,1,1Z"/><path d="M11,15H27c.552,0,1-.447,1-1s-.448-1-1-1H11c-.552,0-1,.447-1,1s.448,1,1,1Z"/><path d="M11,19h14c.552,0,1-.447,1-1s-.448-1-1-1H11c-.552,0-1,.447-1,1s.448,1,1,1Z"/><path d="M28,22c0-.553-.448-1-1-1H11c-.552,0-1,.447-1,1s.448,1,1,1H27c.552,0,1-.447,1-1Z"/><path d="M60.523,44.035l-7.702-2.801-.974-3.406c1.926-1.652,3.152-4.098,3.152-6.828v-7.09c2.833-.479,5-2.943,5-5.91v-4c0-.553-.448-1-1-1h-16c-3.309,0-6,2.691-6,6v12c0,2.73,1.227,5.176,3.152,6.828l-.984,3.442c-.996,.383-3.314,1.31-8.985,3.579l-4.243-3.548,.181-.181c1.17-1.17,1.17-3.072,0-4.242l-.379-.379,2.569-2.569c.228,.031,.453,.069,.689,.069,2.757,0,5-2.243,5-5v-4c0-.553-.448-1-1-1h-1V3c0-1.654-1.346-3-3-3H3C1.346,0,0,1.346,0,3V25c0,1.654,1.346,3,3,3H24.101c-.066,.323-.101,.657-.101,1,0,.235,.038,.461,.069,.689l-2.569,2.569-.378-.379c-1.133-1.133-3.111-1.133-4.243,0l-5,5c-1.17,1.17-1.17,3.072,0,4.242l.379,.379-1.379,1.379c-1.17,1.17-1.17,3.072,0,4.242,.566,.566,1.32,.879,2.122,.879s1.555-.312,2.121-.879l1.379-1.379s10.635,10.356,10.721,10.414c.816,.552,1.777,.844,2.779,.844,.795,0,2.581-.748,4-1.407v7.407c0,.553,.448,1,1,1h28c.552,0,1-.447,1-1v-14c0-2.073-1.527-4.254-3.477-4.965Zm-21.523-25.035c0-2.206,1.794-4,4-4h15v3c0,2.206-1.794,4-4,4h-15v-3Zm0,12v-7h14v7c0,3.859-3.14,7-7,7s-7-3.141-7-7Zm11.859,10.648l-4.859,4.05-4.859-4.05,.756-2.647c1.232,.634,2.624,.999,4.103,.999s2.871-.365,4.103-.999l.756,2.647Zm-18.859-15.648v3c0,1.654-1.346,3-3,3s-3-1.346-3-3,1.346-3,3-3h3ZM2,3c0-.552,.449-1,1-1H29c.551,0,1,.448,1,1v1H2v-1Zm1,23c-.551,0-1-.448-1-1V6H30V24h-1c-1.627,0-3.061,.793-3.975,2H3Zm21.833,5.753c.372,.562,.853,1.042,1.414,1.414l-1.919,1.919-1.414-1.414,1.919-1.919Zm-11.127,13.954c-.377,.379-1.036,.379-1.413,0-.39-.39-.39-1.024,0-1.414l1.379-1.379,1.414,1.414-1.379,1.379Zm4.587-1l-5-5c-.39-.39-.39-1.024,0-1.414l5-5c.188-.19,.439-.293,.707-.293s.518,.103,.707,.293l5,5c.39,.39,.39,1.024,0,1.414l-5.001,5c-.377,.379-1.036,.379-1.413,0Zm43.707,17.293h-4v-5c0-.553-.448-1-1-1s-1,.447-1,1v5h-20v-8c0-.347-.18-.668-.474-.851-.295-.183-.664-.198-.973-.044-1.785,.892-4.043,1.866-4.553,1.895-.601,0-1.174-.173-1.659-.501-.645-.435-5.323-5.05-8.067-7.793,.309-.146,.599-.336,.848-.585l3.399-3.399,4.838,4.046c.183,.152,.411,.232,.642,.232,.125,0,.251-.023,.372-.071,0,0,7.367-2.948,9.446-3.779l5.542,4.619c.185,.154,.413,.231,.64,.231s.455-.077,.64-.231l5.559-4.633,7.641,2.779c1.151,.419,2.16,1.86,2.16,3.085v13Z"/><text x="0" y="79" fill="#000000" font-size="5px" font-weight="bold" font-family="'Helvetica Neue', Helvetica, Arial-Unicode, Arial, Sans-serif">Created by Berkah Icon</text><text x="0" y="84" fill="#000000" font-size="5px" font-weight="bold" font-family="'Helvetica Neue', Helvetica, Arial-Unicode, Arial, Sans-serif">from the Noun Project</text></svg>